<svg xmlns="http://www.w3.org/2000/svg" viewBox="0 0 40 40" fill="none"><path d="M30 13.3333C30 10.6811 28.9464 8.13755 27.0711 6.26218C25.1957 4.38682 22.6522 3.33325 20 3.33325C17.3478 3.33325 14.8043 4.38682 12.9289 6.26218C11.0536 8.13755 10 10.6811 10 13.3333C10 24.9999 5 28.3332 5 28.3332H35C35 28.3332 30 24.9999 30 13.3333Z" stroke="#04D361" stroke-width="3" stroke-linejoin="round"></path><path d="M24.5 34C24.207 34.5051 22.506 35.9244 22 36.2159C21.494 36.5073 20.5835 36.6608 19.9995 36.6608C19.4156 36.6608 18.506 36.5073 18 36.2159C17.494 35.9244 15.793 34.5051 15.5 34" stroke="#04D361" stroke-width="3" stroke-linejoin="round"></path></svg>