<svg xmlns="http://www.w3.org/2000/svg" viewBox="0 0 40 40" fill="none"><path d="M28.3332 35V31.6667C28.3332 29.8986 27.6308 28.2029 26.3805 26.9526C25.1303 25.7024 23.4346 25 21.6665 25H8.33317C6.56506 25 4.86937 25.7024 3.61913 26.9526C2.36888 28.2029 1.6665 29.8986 1.6665 31.6667V35" stroke="#04D361" stroke-width="3" stroke-linejoin="round"></path><path d="M14.9997 18.3333C18.6816 18.3333 21.6663 15.3486 21.6663 11.6667C21.6663 7.98477 18.6816 5 14.9997 5C11.3178 5 8.33301 7.98477 8.33301 11.6667C8.33301 15.3486 11.3178 18.3333 14.9997 18.3333Z" stroke="#04D361" stroke-width="3" stroke-linejoin="round"></path><path d="M38.333 35.0001V31.6668C38.3319 30.1897 37.8403 28.7548 36.9353 27.5873C36.0303 26.4199 34.7632 25.5861 33.333 25.2168" stroke="#04D361" stroke-width="3" stroke-linejoin="round"></path><path d="M26.667 5.2168C28.101 5.58397 29.3721 6.41796 30.2797 7.58731C31.1874 8.75666 31.6801 10.1948 31.6801 11.6751C31.6801 13.1554 31.1874 14.5936 30.2797 15.7629C29.3721 16.9323 28.101 17.7663 26.667 18.1335" stroke="#04D361" stroke-width="3" stroke-linejoin="round"></path></svg>